<mxfile host="65bd71144e">
    <diagram id="comprehensive-lineage" name="Comprehensive Data Lineage">
        <mxGraphModel dx="161" dy="276" grid="1" gridSize="10" guides="1" tooltips="1" connect="1" arrows="1" fold="1" page="1" pageScale="1" pageWidth="1400" pageHeight="1600" math="0" shadow="0">
            <root>
                <mxCell id="0"/>
                <mxCell id="1" parent="0"/>
                <mxCell id="silver-bg" value="" style="rounded=1;whiteSpace=wrap;html=1;fillColor=#e3f2fd;strokeColor=#2196f3;opacity=30;" parent="1" vertex="1">
                    <mxGeometry x="40" y="300" width="1320" height="320" as="geometry"/>
                </mxCell>
                <mxCell id="arrow2" value="" style="edgeStyle=orthogonalEdgeStyle;rounded=0;orthogonalLoop=1;jettySize=auto;html=1;strokeWidth=2;strokeColor=#2196f3;exitX=0.5;exitY=1;startArrow=none;endArrow=classic;entryX=1;entryY=0.5;entryDx=0;entryDy=0;" parent="1" source="stg-weather" target="int-weather-date" edge="1">
                    <mxGeometry relative="1" as="geometry">
                        <mxPoint x="280" y="495" as="targetPoint"/>
                        <Array as="points">
                            <mxPoint x="325" y="420"/>
                            <mxPoint x="400" y="420"/>
                            <mxPoint x="400" y="513"/>
                        </Array>
                    </mxGeometry>
                </mxCell>
                <mxCell id="title" value="WhyLine Denver: Complete Data Lineage&#xa;7 Sources → Bronze → Silver → Gold (29 models)" style="text;html=1;strokeColor=none;fillColor=none;align=center;verticalAlign=middle;whiteSpace=wrap;rounded=0;fontSize=18;fontStyle=1;fontColor=#1a1a1a;" parent="1" vertex="1">
                    <mxGeometry x="200" y="20" width="1000" height="50" as="geometry"/>
                </mxCell>
                <mxCell id="bronze-bg" value="" style="rounded=1;whiteSpace=wrap;html=1;fillColor=#fff4e6;strokeColor=#ff9800;opacity=30;" parent="1" vertex="1">
                    <mxGeometry x="40" y="90" width="1320" height="200" as="geometry"/>
                </mxCell>
                <mxCell id="bronze-label" value="BRONZE: Data Sources &amp; Raw Tables" style="text;html=1;strokeColor=none;fillColor=none;align=left;verticalAlign=top;fontStyle=1;fontSize=14;fontColor=#ff6f00;" parent="1" vertex="1">
                    <mxGeometry x="60" y="100" width="300" height="20" as="geometry"/>
                </mxCell>
                <mxCell id="src-gtfsrt" value="RTD&#xa;GTFS-RT" style="shape=cylinder3;whiteSpace=wrap;html=1;boundedLbl=1;backgroundOutline=1;size=10;fillColor=#4caf50;strokeColor=#2e7d32;fontColor=#ffffff;fontStyle=1;" parent="1" vertex="1">
                    <mxGeometry x="80" y="130" width="90" height="60" as="geometry"/>
                </mxCell>
                <mxCell id="src-gtfs" value="RTD&#xa;GTFS" style="shape=cylinder3;whiteSpace=wrap;html=1;boundedLbl=1;backgroundOutline=1;size=10;fillColor=#4caf50;strokeColor=#2e7d32;fontColor=#ffffff;fontStyle=1;" parent="1" vertex="1">
                    <mxGeometry x="200" y="130" width="90" height="60" as="geometry"/>
                </mxCell>
                <mxCell id="src-weather" value="NOAA&#xa;Weather" style="shape=cylinder3;whiteSpace=wrap;html=1;boundedLbl=1;backgroundOutline=1;size=10;fillColor=#2196f3;strokeColor=#1565c0;fontColor=#ffffff;fontStyle=1;" parent="1" vertex="1">
                    <mxGeometry x="320" y="130" width="90" height="60" as="geometry"/>
                </mxCell>
                <mxCell id="src-crashes" value="Denver&#xa;Crashes" style="shape=cylinder3;whiteSpace=wrap;html=1;boundedLbl=1;backgroundOutline=1;size=10;fillColor=#f44336;strokeColor=#c62828;fontColor=#ffffff;fontStyle=1;" parent="1" vertex="1">
                    <mxGeometry x="440" y="130" width="90" height="60" as="geometry"/>
                </mxCell>
                <mxCell id="src-sidewalks" value="Denver&#xa;Sidewalks" style="shape=cylinder3;whiteSpace=wrap;html=1;boundedLbl=1;backgroundOutline=1;size=10;fillColor=#9c27b0;strokeColor=#6a1b9a;fontColor=#ffffff;fontStyle=1;" parent="1" vertex="1">
                    <mxGeometry x="560" y="130" width="90" height="60" as="geometry"/>
                </mxCell>
                <mxCell id="src-acs" value="Census&#xa;ACS" style="shape=cylinder3;whiteSpace=wrap;html=1;boundedLbl=1;backgroundOutline=1;size=10;fillColor=#ff9800;strokeColor=#e65100;fontColor=#ffffff;fontStyle=1;" parent="1" vertex="1">
                    <mxGeometry x="680" y="130" width="90" height="60" as="geometry"/>
                </mxCell>
                <mxCell id="src-tracts" value="Census&#xa;Tracts" style="shape=cylinder3;whiteSpace=wrap;html=1;boundedLbl=1;backgroundOutline=1;size=10;fillColor=#ff9800;strokeColor=#e65100;fontColor=#ffffff;fontStyle=1;" parent="1" vertex="1">
                    <mxGeometry x="800" y="130" width="90" height="60" as="geometry"/>
                </mxCell>
                <mxCell id="raw-label" value="Raw Tables (13)" style="text;html=1;strokeColor=none;fillColor=none;align=center;fontSize=10;fontStyle=2;fontColor=#666;" parent="1" vertex="1">
                    <mxGeometry x="80" y="205" width="810" height="20" as="geometry"/>
                </mxCell>
                <mxCell id="raw-box" value="raw_gtfsrt_trip_updates • raw_gtfsrt_vehicle_pos • raw_gtfs_routes • raw_gtfs_stops • raw_gtfs_trips • raw_gtfs_stop_times&#xa;raw_weather_daily • raw_crashes • raw_sidewalks • raw_acs_tract • raw_denver_tracts" style="rounded=0;whiteSpace=wrap;html=1;fillColor=#ffe0b2;strokeColor=#ff9800;align=center;fontSize=9;fontColor=#333;" parent="1" vertex="1">
                    <mxGeometry x="80" y="225" width="810" height="35" as="geometry"/>
                </mxCell>
                <mxCell id="silver-label" value="SILVER: Staging (11) &amp; Intermediate (7)" style="text;html=1;strokeColor=none;fillColor=none;align=left;verticalAlign=top;fontStyle=1;fontSize=14;fontColor=#1565c0;" parent="1" vertex="1">
                    <mxGeometry x="60" y="310" width="400" height="20" as="geometry"/>
                </mxCell>
                <mxCell id="stg-gtfs-routes" value="stg_gtfs_routes" style="rounded=0;whiteSpace=wrap;html=1;fillColor=#c5e1a5;strokeColor=#689f38;fontColor=#1b5e20;fontSize=9;fontStyle=1;" parent="1" vertex="1">
                    <mxGeometry x="80" y="345" width="85" height="30" as="geometry"/>
                </mxCell>
                <mxCell id="stg-gtfs-stops" value="stg_gtfs_stops" style="rounded=0;whiteSpace=wrap;html=1;fillColor=#c5e1a5;strokeColor=#689f38;fontColor=#1b5e20;fontSize=9;fontStyle=1;" parent="1" vertex="1">
                    <mxGeometry x="175" y="345" width="85" height="30" as="geometry"/>
                </mxCell>
                <mxCell id="stg-gtfs-trips" value="stg_gtfs_trips" style="rounded=0;whiteSpace=wrap;html=1;fillColor=#c5e1a5;strokeColor=#689f38;fontColor=#1b5e20;fontSize=9;fontStyle=1;" parent="1" vertex="1">
                    <mxGeometry x="270" y="345" width="85" height="30" as="geometry"/>
                </mxCell>
                <mxCell id="stg-gtfs-stop-times" value="stg_gtfs_stop_times" style="rounded=0;whiteSpace=wrap;html=1;fillColor=#c5e1a5;strokeColor=#689f38;fontColor=#1b5e20;fontSize=9;fontStyle=1;" parent="1" vertex="1">
                    <mxGeometry x="365" y="345" width="95" height="30" as="geometry"/>
                </mxCell>
                <mxCell id="stg-rt-events" value="stg_rt_events" style="rounded=0;whiteSpace=wrap;html=1;fillColor=#c5e1a5;strokeColor=#689f38;fontColor=#1b5e20;fontSize=9;fontStyle=1;" parent="1" vertex="1">
                    <mxGeometry x="80" y="385" width="85" height="30" as="geometry"/>
                </mxCell>
                <mxCell id="stg-rt-daily-stats" value="stg_rt_events_daily_stats" style="rounded=0;whiteSpace=wrap;html=1;fillColor=#c5e1a5;strokeColor=#689f38;fontColor=#1b5e20;fontSize=8;fontStyle=1;" parent="1" vertex="1">
                    <mxGeometry x="175" y="385" width="100" height="30" as="geometry"/>
                </mxCell>
                <mxCell id="stg-weather" value="stg_weather" style="rounded=0;whiteSpace=wrap;html=1;fillColor=#90caf9;strokeColor=#1976d2;fontColor=#0d47a1;fontSize=9;fontStyle=1;" parent="1" vertex="1">
                    <mxGeometry x="285" y="385" width="80" height="30" as="geometry"/>
                </mxCell>
                <mxCell id="stg-crashes" value="stg_denver_crashes" style="rounded=0;whiteSpace=wrap;html=1;fillColor=#ef9a9a;strokeColor=#c62828;fontColor=#b71c1c;fontSize=9;fontStyle=1;" parent="1" vertex="1">
                    <mxGeometry x="375" y="385" width="95" height="30" as="geometry"/>
                </mxCell>
                <mxCell id="stg-sidewalks" value="stg_sidewalks" style="rounded=0;whiteSpace=wrap;html=1;fillColor=#ce93d8;strokeColor=#7b1fa2;fontColor=#4a148c;fontSize=9;fontStyle=1;" parent="1" vertex="1">
                    <mxGeometry x="80" y="425" width="85" height="30" as="geometry"/>
                </mxCell>
                <mxCell id="stg-acs" value="stg_acs_geo" style="rounded=0;whiteSpace=wrap;html=1;fillColor=#ffcc80;strokeColor=#e65100;fontColor=#bf360c;fontSize=9;fontStyle=1;" parent="1" vertex="1">
                    <mxGeometry x="175" y="425" width="85" height="30" as="geometry"/>
                </mxCell>
                <mxCell id="stg-tracts" value="stg_denver_tracts" style="rounded=0;whiteSpace=wrap;html=1;fillColor=#ffcc80;strokeColor=#e65100;fontColor=#bf360c;fontSize=9;fontStyle=1;" parent="1" vertex="1">
                    <mxGeometry x="270" y="425" width="95" height="30" as="geometry"/>
                </mxCell>
                <mxCell id="int-rt-resolved" value="int_rt_events_resolved" style="rounded=1;whiteSpace=wrap;html=1;fillColor=#81d4fa;strokeColor=#0277bd;fontColor=#01579b;fontSize=9;fontStyle=1;" parent="1" vertex="1">
                    <mxGeometry x="60" y="495" width="125" height="35" as="geometry"/>
                </mxCell>
                <mxCell id="int-weather-date" value="int_weather_by_date" style="rounded=1;whiteSpace=wrap;html=1;fillColor=#81d4fa;strokeColor=#0277bd;fontColor=#01579b;fontSize=9;fontStyle=1;" parent="1" vertex="1">
                    <mxGeometry x="195" y="495" width="125" height="35" as="geometry"/>
                </mxCell>
                <mxCell id="int-sched-arr" value="int_scheduled_arrivals" style="rounded=1;whiteSpace=wrap;html=1;fillColor=#81d4fa;strokeColor=#0277bd;fontColor=#01579b;fontSize=9;fontStyle=1;" parent="1" vertex="1">
                    <mxGeometry x="440" y="495" width="120" height="35" as="geometry"/>
                </mxCell>
                <mxCell id="int-headway-obs" value="int_stop_headways_observed" style="rounded=1;whiteSpace=wrap;html=1;fillColor=#81d4fa;strokeColor=#0277bd;fontColor=#01579b;fontSize=8;fontStyle=1;" parent="1" vertex="1">
                    <mxGeometry x="65" y="550" width="125" height="40" as="geometry"/>
                </mxCell>
                <mxCell id="int-headway-sch" value="int_stop_headways_scheduled" style="rounded=1;whiteSpace=wrap;html=1;fillColor=#81d4fa;strokeColor=#0277bd;fontColor=#01579b;fontSize=8;fontStyle=1;" parent="1" vertex="1">
                    <mxGeometry x="195" y="550" width="125" height="40" as="geometry"/>
                </mxCell>
                <mxCell id="int-headway-adh" value="int_headway_adherence" style="rounded=1;whiteSpace=wrap;html=1;fillColor=#81d4fa;strokeColor=#0277bd;fontColor=#01579b;fontSize=9;fontStyle=1;" parent="1" vertex="1">
                    <mxGeometry x="330" y="550" width="120" height="40" as="geometry"/>
                </mxCell>
                <mxCell id="int-rt-coverage" value="int_rt_daily_coverage" style="rounded=1;whiteSpace=wrap;html=1;fillColor=#81d4fa;strokeColor=#0277bd;fontColor=#01579b;fontSize=9;fontStyle=1;" parent="1" vertex="1">
                    <mxGeometry x="460" y="550" width="110" height="40" as="geometry"/>
                </mxCell>
                <mxCell id="gold-bg" value="" style="rounded=1;whiteSpace=wrap;html=1;fillColor=#fff9c4;strokeColor=#f9a825;opacity=30;" parent="1" vertex="1">
                    <mxGeometry x="40" y="650" width="1320" height="200" as="geometry"/>
                </mxCell>
                <mxCell id="gold-label" value="GOLD: Analytical Marts (7) — Domain-Specific" style="text;html=1;strokeColor=none;fillColor=none;align=left;verticalAlign=top;fontStyle=1;fontSize=14;fontColor=#f57f17;" parent="1" vertex="1">
                    <mxGeometry x="60" y="660" width="400" height="20" as="geometry"/>
                </mxCell>
                <mxCell id="rel-box" value="RELIABILITY" style="rounded=1;whiteSpace=wrap;html=1;fillColor=#ffccbc;strokeColor=#d84315;fontColor=#bf360c;fontSize=10;fontStyle=1;align=center;verticalAlign=top;" parent="1" vertex="1">
                    <mxGeometry x="80" y="690" width="280" height="140" as="geometry"/>
                </mxCell>
                <mxCell id="mart-rel-route" value="mart_reliability_by_route_day" style="rounded=1;whiteSpace=wrap;html=1;fillColor=#ff8a80;strokeColor=#c62828;fontColor=#ffffff;fontSize=8;fontStyle=1;" parent="1" vertex="1">
                    <mxGeometry x="95" y="720" width="125" height="40" as="geometry"/>
                </mxCell>
                <mxCell id="mart-rel-stop" value="mart_reliability_by_stop_hour" style="rounded=1;whiteSpace=wrap;html=1;fillColor=#ff8a80;strokeColor=#c62828;fontColor=#ffffff;fontSize=8;fontStyle=1;" parent="1" vertex="1">
                    <mxGeometry x="225" y="720" width="125" height="40" as="geometry"/>
                </mxCell>
                <mxCell id="mart-weather" value="mart_weather_impacts" style="rounded=1;whiteSpace=wrap;html=1;fillColor=#ff8a80;strokeColor=#c62828;fontColor=#ffffff;fontSize=8;fontStyle=1;" parent="1" vertex="1">
                    <mxGeometry x="145" y="775" width="125" height="40" as="geometry"/>
                </mxCell>
                <mxCell id="safe-box" value="SAFETY" style="rounded=1;whiteSpace=wrap;html=1;fillColor=#b3e5fc;strokeColor=#0277bd;fontColor=#01579b;fontSize=10;fontStyle=1;align=center;verticalAlign=top;" parent="1" vertex="1">
                    <mxGeometry x="430" y="695" width="150" height="85" as="geometry"/>
                </mxCell>
                <mxCell id="mart-crash" value="mart_crash_proximity_by_stop" style="rounded=1;whiteSpace=wrap;html=1;fillColor=#4fc3f7;strokeColor=#0277bd;fontColor=#ffffff;fontSize=8;fontStyle=1;" parent="1" vertex="1">
                    <mxGeometry x="440" y="720" width="130" height="35" as="geometry"/>
                </mxCell>
                <mxCell id="eq-box" value="EQUITY" style="rounded=1;whiteSpace=wrap;html=1;fillColor=#e1bee7;strokeColor=#6a1b9a;fontColor=#4a148c;fontSize=10;fontStyle=1;align=center;verticalAlign=top;" parent="1" vertex="1">
                    <mxGeometry x="680" y="690" width="140" height="110" as="geometry"/>
                </mxCell>
                <mxCell id="mart-vuln" value="mart_vulnerability_by_stop" style="rounded=1;whiteSpace=wrap;html=1;fillColor=#ba68c8;strokeColor=#6a1b9a;fontColor=#ffffff;fontSize=8;fontStyle=1;" parent="1" vertex="1">
                    <mxGeometry x="690" y="720" width="120" height="30" as="geometry"/>
                </mxCell>
                <mxCell id="mart-hotspot" value="mart_priority_hotspots" style="rounded=1;whiteSpace=wrap;html=1;fillColor=#ba68c8;strokeColor=#6a1b9a;fontColor=#ffffff;fontSize=8;fontStyle=1;" parent="1" vertex="1">
                    <mxGeometry x="690" y="760" width="120" height="30" as="geometry"/>
                </mxCell>
                <mxCell id="acc-box" value="ACCESS" style="rounded=1;whiteSpace=wrap;html=1;fillColor=#c8e6c9;strokeColor=#2e7d32;fontColor=#1b5e20;fontSize=10;fontStyle=1;align=center;verticalAlign=top;" parent="1" vertex="1">
                    <mxGeometry x="930" y="700" width="140" height="80" as="geometry"/>
                </mxCell>
                <mxCell id="mart-access" value="mart_access_score_by_stop" style="rounded=1;whiteSpace=wrap;html=1;fillColor=#66bb6a;strokeColor=#2e7d32;fontColor=#ffffff;fontSize=8;fontStyle=1;" parent="1" vertex="1">
                    <mxGeometry x="940" y="730" width="120" height="30" as="geometry"/>
                </mxCell>
                <mxCell id="arrow1" value="" style="edgeStyle=orthogonalEdgeStyle;rounded=0;orthogonalLoop=1;jettySize=auto;html=1;strokeWidth=2;strokeColor=#4caf50;exitX=0;exitY=0.5;entryX=0;entryY=0.5;startArrow=none;endArrow=classic;entryDx=0;entryDy=0;exitDx=0;exitDy=0;" parent="1" source="stg-rt-events" target="int-rt-resolved" edge="1">
                    <mxGeometry relative="1" as="geometry">
                        <Array as="points">
                            <mxPoint x="50" y="400"/>
                            <mxPoint x="50" y="513"/>
                        </Array>
                    </mxGeometry>
                </mxCell>
                <mxCell id="arrow3" value="" style="edgeStyle=orthogonalEdgeStyle;rounded=0;orthogonalLoop=1;jettySize=auto;html=1;strokeWidth=2;strokeColor=#4caf50;exitX=0.5;exitY=1;entryX=0;entryY=0.5;startArrow=none;endArrow=classic;entryDx=0;entryDy=0;" parent="1" source="int-rt-resolved" target="mart-rel-route" edge="1">
                    <mxGeometry relative="1" as="geometry">
                        <Array as="points">
                            <mxPoint x="133" y="530"/>
                            <mxPoint x="133" y="540"/>
                            <mxPoint x="60" y="540"/>
                            <mxPoint x="60" y="740"/>
                        </Array>
                    </mxGeometry>
                </mxCell>
                <mxCell id="legend-box" value="&lt;blockquote style=&quot;margin: 0 0 0 40px; border: none; padding: 0px;&quot;&gt;&lt;span style=&quot;background-color: light-dark(#ffffff, var(--ge-dark-color, #121212));&quot;&gt;LEGEND&lt;/span&gt;&lt;/blockquote&gt;" style="rounded=1;whiteSpace=wrap;html=1;fillColor=#ffffff;strokeColor=#757575;align=left;verticalAlign=top;fontStyle=1;fontSize=11;shadow=1;" parent="1" vertex="1">
                    <mxGeometry x="1050" y="100" width="280" height="180" as="geometry"/>
                </mxCell>
                <mxCell id="leg-bronze" value="Bronze: Data sources" style="shape=cylinder3;whiteSpace=wrap;html=1;boundedLbl=1;size=8;fillColor=#4caf50;strokeColor=#2e7d32;fontColor=#ffffff;fontSize=9;" parent="1" vertex="1">
                    <mxGeometry x="1070" y="130" width="90" height="35" as="geometry"/>
                </mxCell>
                <mxCell id="leg-silver-stg" value="Silver: Staging (dedupe)" style="rounded=0;whiteSpace=wrap;html=1;fillColor=#c5e1a5;strokeColor=#689f38;fontColor=#1b5e20;fontSize=9;" parent="1" vertex="1">
                    <mxGeometry x="1170" y="130" width="140" height="20" as="geometry"/>
                </mxCell>
                <mxCell id="leg-silver-int" value="Silver: Intermediate (metrics)" style="rounded=1;whiteSpace=wrap;html=1;fillColor=#81d4fa;strokeColor=#0277bd;fontColor=#01579b;fontSize=9;" parent="1" vertex="1">
                    <mxGeometry x="1170" y="155" width="140" height="20" as="geometry"/>
                </mxCell>
                <mxCell id="leg-gold" value="Gold: Analytical marts" style="rounded=1;whiteSpace=wrap;html=1;fillColor=#ff8a80;strokeColor=#c62828;fontColor=#ffffff;fontSize=9;fontStyle=1;" parent="1" vertex="1">
                    <mxGeometry x="1170" y="180" width="140" height="20" as="geometry"/>
                </mxCell>
                <mxCell id="leg-note" value="Color-coded by domain:&#xa;🟢 GTFS Transit | 🔵 Weather&#xa;🔴 Safety | 🟣 Equity | 🟠 Census" style="text;html=1;strokeColor=none;fillColor=none;align=left;fontSize=9;fontColor=#666;" parent="1" vertex="1">
                    <mxGeometry x="1070" y="215" width="240" height="50" as="geometry"/>
                </mxCell>
                <mxCell id="stats-box" value="&lt;div style=&quot;text-align: justify;&quot;&gt;&lt;span style=&quot;background-color: transparent;&quot;&gt;PIPELINE STATS&lt;/span&gt;&lt;/div&gt;&lt;div style=&quot;text-align: justify;&quot;&gt;&lt;span style=&quot;background-color: transparent;&quot;&gt;• 7 data sources&lt;/span&gt;&lt;/div&gt;&lt;div style=&quot;text-align: justify;&quot;&gt;&lt;span style=&quot;background-color: transparent;&quot;&gt;• 13 raw tables (Bronze)&lt;/span&gt;&lt;/div&gt;&lt;div style=&quot;text-align: justify;&quot;&gt;&lt;span style=&quot;background-color: transparent;&quot;&gt;• 11 staging + 7 intermediate (Silver)&lt;/span&gt;&lt;/div&gt;&lt;div style=&quot;text-align: justify;&quot;&gt;&lt;span style=&quot;background-color: transparent;&quot;&gt;• 7 marts across 4 domains (Gold)&lt;/span&gt;&lt;/div&gt;&lt;div style=&quot;text-align: justify;&quot;&gt;&lt;span style=&quot;background-color: transparent;&quot;&gt;• ~144M events/year → 15K route-days&lt;/span&gt;&lt;/div&gt;&lt;div style=&quot;text-align: justify;&quot;&gt;&lt;span style=&quot;background-color: transparent;&quot;&gt;• Total cost: ~$25/year&lt;/span&gt;&lt;/div&gt;&lt;div style=&quot;text-align: justify;&quot;&gt;&lt;br&gt;&lt;/div&gt;&lt;div style=&quot;text-align: justify;&quot;&gt;&lt;span style=&quot;background-color: transparent;&quot;&gt;Note: Simplified arrows shown.&lt;/span&gt;&lt;/div&gt;&lt;div style=&quot;text-align: justify;&quot;&gt;&lt;span style=&quot;background-color: transparent;&quot;&gt;Full lineage in domain-specific diagrams.&lt;/span&gt;&lt;/div&gt;" style="rounded=1;whiteSpace=wrap;html=1;fillColor=#f5f5f5;strokeColor=#9e9e9e;align=center;verticalAlign=top;fontStyle=1;fontSize=9;fontColor=#424242;shadow=1;" parent="1" vertex="1">
                    <mxGeometry x="1050" y="345" width="280" height="180" as="geometry"/>
                </mxCell>
                <mxCell id="footer" value="Created: 2025-10-26 | WhyLine Denver Data Pipeline | Medallion Architecture (Bronze→Silver→Gold)" style="text;html=1;strokeColor=none;fillColor=none;align=center;fontSize=9;fontStyle=2;fontColor=#9e9e9e;" parent="1" vertex="1">
                    <mxGeometry x="200" y="870" width="1000" height="20" as="geometry"/>
                </mxCell>
                <mxCell id="int-label" value="INTERMEDIATE MODELS (Derived Metrics)" style="text;html=1;strokeColor=none;fillColor=none;align=left;fontSize=10;fontStyle=1;fontColor=#0277bd;" parent="1" vertex="1">
                    <mxGeometry x="80" y="470" width="300" height="20" as="geometry"/>
                </mxCell>
            </root>
        </mxGraphModel>
    </diagram>
</mxfile>